<svg width="78" height="28" viewBox="0 0 78 28" fill="none" xmlns="http://www.w3.org/2000/svg">
<g clip-path="url(#clip0_2016_1253)">
<path fill-rule="evenodd" clip-rule="evenodd" d="M18.1543 8.15161C18.8282 8.15161 19.3 8.69075 19.1652 9.29728C17.9536 14.6455 18.1393 20.2156 19.7043 25.4714C19.9065 26.0779 19.3674 26.6844 18.7609 26.6844H2.45199C1.77807 26.6844 1.23893 26.0105 1.44111 25.404C3.05852 19.6756 3.05852 15.6995 1.98024 9.29728C1.91285 8.62336 2.3172 8.219 2.99112 8.219H3.05852C6.36072 8.55596 8.44988 8.69075 10.6064 8.69075C12.6282 8.69075 14.7847 8.55596 18.0195 8.219H18.1543V8.15161ZM8.04553 12.7343C8.04553 13.1386 7.70857 13.4756 7.23682 13.4756C7.14235 13.4761 7.04884 13.4567 6.96235 13.4187C6.87586 13.3807 6.79833 13.3249 6.73478 13.255C6.67123 13.1851 6.62309 13.1026 6.59348 13.0129C6.56387 12.9232 6.55345 12.8283 6.5629 12.7343C6.55345 12.6403 6.56387 12.5453 6.59348 12.4556C6.62309 12.3659 6.67123 12.2834 6.73478 12.2135C6.79833 12.1436 6.87586 12.0879 6.96235 12.0499C7.04884 12.0119 7.14235 11.9925 7.23682 11.993C7.70857 11.993 8.04553 12.3299 8.04553 12.6669V12.7343ZM13.8412 13.4756C14.2456 13.4756 14.6499 13.1386 14.6499 12.7343C14.6499 12.3299 14.2456 11.993 13.8412 11.993C13.6625 11.993 13.4911 12.064 13.3647 12.1903C13.2383 12.3167 13.1673 12.4881 13.1673 12.6669C13.1471 12.7659 13.1494 12.8683 13.1741 12.9663C13.1987 13.0643 13.2452 13.1556 13.3099 13.2332C13.3746 13.3109 13.456 13.373 13.5479 13.415C13.6399 13.4569 13.7402 13.4776 13.8412 13.4756ZM6.36072 15.2952C6.36072 16.643 7.3716 19.3387 10.539 19.3387C13.7738 19.3387 14.7847 16.643 14.7847 15.2952C14.7847 15.0256 14.5152 14.756 14.2456 14.756C13.976 14.756 13.7738 15.0256 13.7738 15.2952C13.7738 16.306 12.9651 18.3952 10.539 18.3952C10.1263 18.4042 9.71592 18.3306 9.33199 18.1788C8.94807 18.0271 8.59832 17.8002 8.30328 17.5114C8.00824 17.2226 7.77385 16.8778 7.61386 16.4973C7.45387 16.1167 7.37151 15.708 7.3716 15.2952C7.3716 15.0256 7.16943 14.756 6.83247 14.756C6.5629 14.756 6.36072 15.0256 6.36072 15.2952Z" fill="#8A8A8A"/>
<path d="M12.6961 5.38848C12.9785 5.33867 13.2476 5.23126 13.4866 5.07296C13.7257 4.91465 13.9296 4.70883 14.0857 4.4683C14.2418 4.22778 14.3467 3.9577 14.3939 3.67489C14.441 3.39207 14.4295 3.10257 14.36 2.8244C14.2904 2.54624 14.1644 2.28536 13.9896 2.05802C13.8149 1.83068 13.5953 1.64174 13.3444 1.50296C13.0935 1.36418 12.8167 1.27854 12.5312 1.25135C12.2458 1.22417 11.9578 1.25603 11.6852 1.34496C11.4029 1.39477 11.1338 1.50217 10.8947 1.66048C10.6557 1.81879 10.4518 2.02461 10.2957 2.26513C10.1396 2.50566 10.0347 2.77574 9.98753 3.05855C9.94034 3.34137 9.95188 3.63087 10.0214 3.90904C10.091 4.1872 10.217 4.44807 10.3917 4.67541C10.5665 4.90275 10.7861 5.09169 11.037 5.23047C11.2879 5.36925 11.5647 5.4549 11.8501 5.48208C12.1356 5.50927 12.4235 5.4774 12.6961 5.38848Z" fill="#8A8A8A"/>
<path d="M17.2782 7.54502V5.38847C17.3456 4.71455 16.6043 4.24281 15.9304 4.64716L12.0216 7.20806C11.7521 7.34284 11.5499 7.61241 11.4825 7.88198C13.0999 7.88198 14.8521 7.74719 17.2782 7.54502Z" fill="#8A8A8A"/>
<path d="M4.00225 7.54503C6.63053 7.8146 8.5849 7.94938 10.5393 7.94938L9.59578 4.84935C9.50361 4.58327 9.311 4.3638 9.05913 4.23786C8.80726 4.11193 8.51612 4.08952 8.24794 4.17543L4.4066 5.18631C3.80007 5.3211 3.46311 5.99502 3.73268 6.53415L3.93485 7.47764L4.00225 7.54503Z" fill="#8A8A8A"/>
<path d="M64.3181 17.4518C63.9034 16.2784 63.1377 15.2611 62.125 14.5377C61.1123 13.8144 59.9016 13.42 58.6572 13.4082C58.1864 13.4082 57.7221 13.5178 57.301 13.7284C56.8799 13.9389 56.5136 14.2446 56.2311 14.6213C55.6246 15.2952 55.5572 16.4409 55.692 17.317V17.5865L55.9615 17.3844C56.1637 17.1822 56.6354 16.9126 57.1746 16.7778H58.1181C58.8594 16.8452 59.5333 17.1822 60.0724 17.7213C60.7464 18.3952 61.0159 19.2713 61.0159 20.2822C61.0159 21.3605 60.679 22.1692 60.0724 22.8431C59.3985 23.517 58.5898 23.7866 57.5789 23.7866C57.1322 23.7981 56.6876 23.7206 56.2711 23.5586C55.8546 23.3966 55.4744 23.1534 55.1528 22.8431C54.1419 21.8322 54.2767 19.8779 54.2767 19.8779V8.21905L54.1419 8.08427L53.7376 8.01687C53.4006 7.88209 52.9963 7.8147 52.5245 7.8147C51.918 7.8147 51.4463 7.94948 51.1093 8.21905C50.7723 8.42123 50.6376 8.82558 50.6376 9.36471V19.6757C50.6376 20.754 50.7723 21.6974 50.9745 22.5062C51.1767 23.3149 51.5136 23.9888 51.918 24.5279C52.5919 25.3366 53.3332 25.9431 54.3441 26.4149C56.317 27.2534 58.5367 27.3016 60.5442 26.5497C61.3732 26.258 62.1315 25.7953 62.7701 25.1916C63.4087 24.5879 63.9131 23.8566 64.2507 23.0453C64.5877 22.2366 64.7225 21.2931 64.7225 20.2822C64.7225 19.2039 64.5877 18.2605 64.2507 17.4518H64.3181ZM42.4157 8.01687L41.2027 7.8147C40.5288 7.8147 40.1244 7.94948 39.72 8.21905C39.4505 8.42123 39.2483 8.82558 39.2483 9.36471V26.6845H42.8875V8.21905L42.4157 8.08427V8.01687ZM46.8636 11.8582C47.139 11.8635 47.4126 11.8124 47.6675 11.7081C47.9225 11.6038 48.1535 11.4485 48.3462 11.2517C48.7506 10.9147 48.9528 10.443 48.9528 9.90385C48.9528 9.36765 48.7397 8.8534 48.3606 8.47425C47.9814 8.0951 47.4672 7.88209 46.931 7.88209C46.3245 7.88209 45.8527 8.01687 45.4484 8.42123C45.0921 8.8053 44.8988 9.31268 44.9092 9.83646C44.9092 10.443 45.044 10.9147 45.4484 11.2517C45.8216 11.6326 46.3303 11.8506 46.8636 11.8582ZM46.9984 13.8126C46.3919 13.8126 45.9201 13.9474 45.5832 14.2169C45.2462 14.4191 45.1114 14.8235 45.1114 15.43V26.6845H48.7506V14.1495L48.2114 14.0148C47.8745 13.88 47.4701 13.8126 46.9984 13.8126ZM69.5073 8.01687C69.1704 7.88209 68.766 7.8147 68.2943 7.8147C67.6877 7.8147 67.216 7.94948 66.879 8.21905C66.5421 8.42123 66.4073 8.82558 66.4073 9.36471V26.6845H70.0465V8.21905L69.5073 8.08427V8.01687ZM73.9552 11.8582C74.4885 11.8506 74.9971 11.6326 75.3704 11.2517C75.7748 10.9147 75.9769 10.443 75.9769 9.90385C75.9769 9.36765 75.7639 8.8534 75.3848 8.47425C75.0056 8.0951 74.4914 7.88209 73.9552 7.88209C73.3487 7.88209 72.8769 8.01687 72.4726 8.42123C72.1163 8.8053 71.923 9.31268 71.9334 9.83646C71.9334 10.443 72.1356 10.9147 72.4726 11.2517C72.6653 11.4485 72.8963 11.6038 73.1512 11.7081C73.4062 11.8124 73.6798 11.8635 73.9552 11.8582ZM74.0226 13.8126C73.416 13.8126 72.9443 13.9474 72.6073 14.2169C72.2704 14.4191 72.1356 14.8235 72.1356 15.43V26.6845H75.7748V14.1495L75.2356 14.0148C74.8987 13.88 74.4943 13.8126 74.0226 13.8126ZM37.0918 17.4518C36.677 16.2784 35.9113 15.2611 34.8986 14.5377C33.886 13.8144 32.6753 13.42 31.4308 13.4082C30.9715 13.4185 30.5204 13.5331 30.1118 13.7432C29.7032 13.9534 29.3477 14.2536 29.0721 14.6213C28.3982 15.2952 28.3982 16.4409 28.533 17.317V17.5865L28.8025 17.3844C29.0047 17.1822 29.4765 16.9126 30.0156 16.7778H30.9591C31.7004 16.8452 32.3069 17.1822 32.9135 17.7213C33.52 18.3952 33.8569 19.2713 33.8569 20.2822C33.8569 21.3605 33.52 22.1692 32.8461 22.8431C32.1721 23.517 31.4308 23.7192 30.42 23.7192C29.9732 23.7307 29.5286 23.6532 29.1121 23.4912C28.6956 23.3292 28.3155 23.086 27.9938 22.7757C26.983 21.7648 27.0504 19.8105 27.0504 19.8105V8.21905L26.983 8.08427L26.5786 8.01687C26.2416 7.88209 25.8373 7.8147 25.3656 7.8147C24.759 7.8147 24.2873 7.94948 23.9503 8.21905C23.6134 8.42123 23.4786 8.82558 23.4786 9.36471V19.6757C23.4786 20.754 23.546 21.6974 23.8155 22.5062C24.0177 23.3149 24.3547 23.9888 24.6916 24.5279C25.3656 25.3366 26.1743 25.9431 27.1851 26.4149C29.1384 27.2356 31.3304 27.2838 33.3178 26.5497C34.1468 26.258 34.9052 25.7953 35.5437 25.1916C36.1823 24.5879 36.6868 23.8566 37.0244 23.0453C37.4287 22.2366 37.5635 21.2931 37.5635 20.2822C37.5635 19.2039 37.4287 18.2605 37.0918 17.4518Z" fill="#8A8A8A"/>
</g>
<defs>
<clipPath id="clip0_2016_1253">
<rect width="76.8269" height="26.9568" fill="white" transform="translate(0.296143 0.805908)"/>
</clipPath>
</defs>
</svg>
