<svg width="111" height="29" viewBox="0 0 111 29" fill="none" xmlns="http://www.w3.org/2000/svg">
<g clip-path="url(#clip0_2019_1228)">
<path d="M45.616 4.01611H48.0937V15.8753H52.3647V18.2162H45.6264L45.616 4.01611Z" fill="#8A8A8A"/>
<path d="M58.1017 7.57406C59.4144 7.55771 60.6588 8.15292 61.4659 9.18275V7.78546H63.7775V18.237H61.4659V16.8397C60.6588 17.8695 59.4144 18.4647 58.1017 18.4484C55.2198 18.4484 53.0324 15.9992 53.0324 13.0086C53.0324 10.0181 55.2198 7.57406 58.1017 7.57406ZM58.5218 9.66743C56.6505 9.66743 55.4115 11.1318 55.4115 13.0086C55.4115 14.8855 56.671 16.355 58.5218 16.355C60.3722 16.355 61.6318 14.8906 61.6318 13.0086C61.6318 11.1266 60.3927 9.66743 58.5218 9.66743Z" fill="#8A8A8A"/>
<path d="M65.577 16.4219L71.0869 9.87364H65.6597V7.7854H74.0724V9.62615L68.5833 16.1487H74.1968V18.2369H65.577V16.4219Z" fill="#8A8A8A"/>
<path d="M80.0749 7.57406C81.3872 7.55771 82.632 8.15292 83.4388 9.18275V7.78546H85.7507V18.237H83.4388V16.8397C82.632 17.8695 81.3872 18.4647 80.0749 18.4484C77.193 18.4484 75.0106 15.9992 75.0106 13.0086C75.0106 10.0181 77.193 7.57406 80.0749 7.57406ZM80.4947 9.66743C78.6234 9.66743 77.3847 11.1318 77.3847 13.0086C77.3847 14.8855 78.6442 16.355 80.4947 16.355C82.3451 16.355 83.6046 14.8906 83.6046 13.0086C83.6046 11.1266 82.3659 9.66743 80.4947 9.66743Z" fill="#8A8A8A"/>
<path d="M92.3537 7.57399C93.6648 7.55685 94.9081 8.1524 95.7126 9.18268V3.17578H98.0241V18.2369H95.7126V16.8396C94.9081 17.8699 93.6648 18.4654 92.3537 18.4483C89.4718 18.4483 87.2844 15.9991 87.2844 13.0086C87.2844 10.018 89.4718 7.57399 92.3537 7.57399ZM92.7734 9.66736C90.9021 9.66736 89.6634 11.1317 89.6634 13.0086C89.6634 14.8854 90.9283 16.3549 92.7734 16.3549C94.6189 16.3549 95.8834 14.8905 95.8834 13.0086C95.8834 11.1266 94.6447 9.66736 92.7734 9.66736Z" fill="#8A8A8A"/>
<path d="M104.628 7.57409C105.939 7.55695 107.182 8.1525 107.987 9.18279V7.78549H110.293V18.237H107.976V16.8397C107.172 17.87 105.929 18.4655 104.617 18.4484C101.735 18.4484 99.548 15.9992 99.548 13.0087C99.548 10.0181 101.746 7.57409 104.628 7.57409ZM105.048 9.66746C103.176 9.66746 101.937 11.1318 101.937 13.0087C101.937 14.8855 103.202 16.355 105.048 16.355C106.893 16.355 108.158 14.8906 108.158 13.0087C108.158 11.1267 106.919 9.66746 105.048 9.66746Z" fill="#8A8A8A"/>
<path d="M18.5698 28.54C18.3191 28.5417 18.0724 28.4779 17.8543 28.355C15.9869 27.2802 2.15653 18.6541 1.63422 18.3907C1.23673 18.2062 0.965305 17.8282 0.918735 17.3943V5.29488C0.908449 4.84324 1.1329 4.41821 1.51259 4.17035L1.61276 4.11341C2.95072 3.2878 7.42964 0.568992 8.13797 0.17754C8.30052 0.0815878 8.48565 0.0300285 8.67459 0.0280762C8.85176 0.0300702 9.02588 0.0739845 9.18261 0.156188C9.18261 0.156188 15.4503 4.22017 16.409 4.58315C17.0817 4.8906 17.8153 5.04383 18.5555 5.03155C19.3943 5.04899 20.2231 4.84778 20.9595 4.44793C21.8968 3.95683 27.8854 0.17754 27.9498 0.17754C28.1008 0.0868253 28.2743 0.0399805 28.4506 0.0423108C28.6398 0.0432317 28.8251 0.0948652 28.9873 0.191774C29.8029 0.640163 35.3551 4.02089 35.5912 4.17035C35.9817 4.40471 36.2184 4.82702 36.2137 5.28065V17.3801C36.1699 17.815 35.8976 18.1942 35.4982 18.3765C34.9759 18.6612 21.1885 27.2874 19.2853 28.3408C19.0686 28.4687 18.8218 28.5374 18.5698 28.54Z" fill="url(#paint0_linear_2019_1228)"/>
<path d="M18.4985 28.54L18.57 28.54C18.8207 28.5417 19.0674 28.4779 19.2855 28.3549C21.1529 27.2802 34.9761 18.654 35.4984 18.3907C35.8978 18.2084 36.1701 17.8292 36.2139 17.3943V5.29483C36.2162 5.09 36.1696 4.88755 36.078 4.7041L18.4985 14.3053V28.54Z" fill="#7D7D88"/>
<path d="M18.4376 28.3696L18.3668 28.3695C18.1188 28.3712 17.8747 28.3081 17.6589 28.1865C15.8114 27.1232 2.13546 18.5889 1.61871 18.3284C1.22359 18.148 0.954193 17.7729 0.910868 17.3425V5.37203C0.908587 5.16939 0.954664 4.96909 1.04536 4.7876L18.4376 14.2865V28.3696Z" fill="#8A8A8A"/>
</g>
<defs>
<linearGradient id="paint0_linear_2019_1228" x1="36.2137" y1="14.2841" x2="0.918396" y2="14.2841" gradientUnits="userSpaceOnUse">
<stop stop-color="#7D7D88"/>
<stop offset="1" stop-color="#676772"/>
</linearGradient>
<clipPath id="clip0_2019_1228">
<rect width="109.382" height="28.512" fill="white" transform="translate(0.91333 0.0283203)"/>
</clipPath>
</defs>
</svg>
